<svg xmlns="http://www.w3.org/2000/svg" width="140" height="30.471" viewBox="0 0 140 30.471">
  <g id="airtable-1" transform="translate(0 0.001)">
    <path id="Path_91" data-name="Path 91" d="M225.322,40.507l-2.437-6.569a.309.309,0,0,0-.579,0l-2.437,6.57a.309.309,0,0,0,.29.416h4.873a.309.309,0,0,0,.289-.416m1.126,3.692h-7.7a.309.309,0,0,0-.289.2l-1.517,4.088a.309.309,0,0,1-.289.2h-3.339a.309.309,0,0,1-.287-.424l7.688-19.152a.309.309,0,0,1,.287-.194h3.2a.309.309,0,0,1,.287.194l7.688,19.151a.309.309,0,0,1-.287.424h-3.339a.309.309,0,0,1-.289-.2L226.737,44.4a.309.309,0,0,0-.289-.2m7.286-8.557h2.856a.309.309,0,0,1,.309.309v12.43a.309.309,0,0,1-.309.309h-2.856a.309.309,0,0,1-.309-.309V35.95a.309.309,0,0,1,.309-.309m13.581,3.024a.309.309,0,0,1-.309.309h-.086a4.169,4.169,0,0,0-3.107,1.017,4.716,4.716,0,0,0-.988,3.361v5.029a.309.309,0,0,1-.309.309h-2.828a.309.309,0,0,1-.309-.309V35.95a.309.309,0,0,1,.309-.309h2.8a.309.309,0,0,1,.309.309v2.459h.057a4.653,4.653,0,0,1,1.61-2.344,4.416,4.416,0,0,1,2.711-.819h.141v3.419Zm7.809-.115a.309.309,0,0,0-.309.309v5.17a1.652,1.652,0,0,0,.31,1.13,1.409,1.409,0,0,0,1.073.339h.284a.309.309,0,0,1,.309.309v2.6a.309.309,0,0,1-.309.309h-1.216a4.038,4.038,0,0,1-2.909-.974,3.828,3.828,0,0,1-1.017-2.895V38.859a.309.309,0,0,0-.309-.309h-1.783a.309.309,0,0,1-.309-.309V35.95a.309.309,0,0,1,.309-.309h1.783a.309.309,0,0,0,.309-.309V30.726a.309.309,0,0,1,.309-.309h2.856a.309.309,0,0,1,.309.309v4.607a.309.309,0,0,0,.309.309h2.065a.309.309,0,0,1,.309.309v2.291a.309.309,0,0,1-.309.309h-2.065ZM268.2,44.82a4.1,4.1,0,0,0,0-5.31,3.721,3.721,0,0,0-5.112,0,4.1,4.1,0,0,0,0,5.31,3.721,3.721,0,0,0,5.112,0m-6.594,3.474a5.8,5.8,0,0,1-2.273-2.386,7.868,7.868,0,0,1-.833-3.742,7.868,7.868,0,0,1,.833-3.742,5.8,5.8,0,0,1,2.273-2.386,6.287,6.287,0,0,1,3.163-.819,5.386,5.386,0,0,1,2.613.593,4.547,4.547,0,0,1,1.737,1.666h.056V35.95a.309.309,0,0,1,.309-.309h2.828a.309.309,0,0,1,.309.309V48.38a.309.309,0,0,1-.309.309h-2.828a.309.309,0,0,1-.309-.309V46.854h-.056a4.542,4.542,0,0,1-1.737,1.666,5.384,5.384,0,0,1-2.612.593,6.289,6.289,0,0,1-3.163-.819m22.775-3.474a4.1,4.1,0,0,0,0-5.309,3.721,3.721,0,0,0-5.112,0,4.1,4.1,0,0,0,0,5.31,3.721,3.721,0,0,0,5.112,0m-4.293,3.7a4.535,4.535,0,0,1-1.737-1.666H278.3V48.38a.309.309,0,0,1-.309.309H275.13a.309.309,0,0,1-.309-.309V29.229a.309.309,0,0,1,.309-.309h2.856a.309.309,0,0,1,.309.309v8.248h.057a4.538,4.538,0,0,1,1.737-1.666,5.381,5.381,0,0,1,2.612-.593,6.289,6.289,0,0,1,3.163.819,5.8,5.8,0,0,1,2.273,2.386,8.82,8.82,0,0,1,0,7.485,5.8,5.8,0,0,1-2.273,2.386,6.289,6.289,0,0,1-3.163.819,5.38,5.38,0,0,1-2.612-.593m13.694.169h-2.856a.309.309,0,0,1-.309-.309V29.229a.309.309,0,0,1,.309-.309h2.856a.309.309,0,0,1,.309.309V48.381a.309.309,0,0,1-.309.309m6.737-10.026a2.754,2.754,0,0,0-.959,1.6.309.309,0,0,0,.3.377H305.3a.309.309,0,0,0,.306-.355,2.554,2.554,0,0,0-.849-1.58,3.115,3.115,0,0,0-2.1-.692,3.364,3.364,0,0,0-2.132.649m6.961-1.624a7.365,7.365,0,0,1,1.666,5.154v.369a.309.309,0,0,1-.309.309h-9.08a.311.311,0,0,0-.306.364,3.174,3.174,0,0,0,1.1,1.966,3.819,3.819,0,0,0,2.528.833A5.3,5.3,0,0,0,306.72,44.5a.307.307,0,0,1,.459.054l1.388,1.993a.309.309,0,0,1-.047.408,10.226,10.226,0,0,1-2.253,1.5,7.185,7.185,0,0,1-3.191.664,7.62,7.62,0,0,1-3.7-.861,6.093,6.093,0,0,1-2.457-2.429,7.314,7.314,0,0,1-.876-3.629,7.6,7.6,0,0,1,.847-3.643,6.087,6.087,0,0,1,2.372-2.457,7.026,7.026,0,0,1,3.558-.875,6,6,0,0,1,4.66,1.821m-70.21-5.993a2.11,2.11,0,1,1-2.109-2.11,2.109,2.109,0,0,1,2.109,2.11" transform="translate(-169.147 -22.967)" fill="#333"/>
    <path id="Path_92" data-name="Path 92" d="M24.453.383,10.873,6a.91.91,0,0,0,.013,1.687L24.522,13.1a5.06,5.06,0,0,0,3.731,0L41.889,7.689A.91.91,0,0,0,41.9,6L28.322.383a5.06,5.06,0,0,0-3.87,0" transform="translate(-8.188 0)" fill="#fcb400"/>
    <path id="Path_93" data-name="Path 93" d="M94.273,51.7V65.208a.91.91,0,0,0,1.245.846l15.2-5.9a.91.91,0,0,0,.574-.846V45.8a.91.91,0,0,0-1.245-.846l-15.2,5.9a.91.91,0,0,0-.574.846" transform="translate(-74.864 -35.649)" fill="#18bfff"/>
    <path id="Path_94" data-name="Path 94" d="M15.861,52.616l-4.51,2.177-.458.221-9.52,4.561A.964.964,0,0,1,0,58.757V46.077a.848.848,0,0,1,.291-.609A1.034,1.034,0,0,1,.522,45.3a.97.97,0,0,1,.828-.064l14.436,5.72a.91.91,0,0,1,.076,1.665" transform="translate(0 -35.869)" fill="#f82b60"/>
    <path id="Path_95" data-name="Path 95" d="M16.984,52.616l-4.51,2.177L1.414,45.468a1.034,1.034,0,0,1,.231-.173.97.97,0,0,1,.828-.064l14.436,5.72a.91.91,0,0,1,.076,1.665" transform="translate(-1.123 -35.869)" fill="rgba(0,0,0,0.25)"/>
  </g>
</svg>
