<svg id="amazon-2" xmlns="http://www.w3.org/2000/svg" width="112.204" height="33.779" viewBox="0 0 112.204 33.779">
  <path id="Path_72" data-name="Path 72" d="M257.447,322.725c-6.5,4.8-15.945,7.362-24.094,7.362a43.686,43.686,0,0,1-29.449-11.22c-.591-.551-.079-1.3.669-.866A58.492,58.492,0,0,0,256.5,321.19C257.6,320.757,258.51,321.938,257.447,322.725Z" transform="translate(-187.841 -296.308)" fill="#c2cbd8" fill-rule="evenodd"/>
  <path id="Path_73" data-name="Path 73" d="M334.663,317.819c-.827-1.063-5.512-.512-7.6-.236-.63.079-.748-.472-.158-.866,3.74-2.638,9.842-1.85,10.551-.984s-.2,7.008-3.7,9.921c-.551.433-1.063.2-.827-.394C333.718,323.292,335.49,318.922,334.663,317.819Z" transform="translate(-262.341 -294.512)" fill="#c2cbd8" fill-rule="evenodd"/>
  <path id="Path_74" data-name="Path 74" d="M228.342,266.8v-2.559a.6.6,0,0,1,.63-.63h11.417a.656.656,0,0,1,.669.63v2.165c0,.354-.315.827-.866,1.614l-5.905,8.425a12.826,12.826,0,0,1,6.5,1.378,1.173,1.173,0,0,1,.591.984v2.716c0,.394-.394.827-.827.591a13.024,13.024,0,0,0-12.047.039.618.618,0,0,1-.827-.591v-2.6a2.942,2.942,0,0,1,.433-1.732l6.85-9.8h-5.945a.656.656,0,0,1-.669-.63Zm-41.614,15.866h-3.465a.711.711,0,0,1-.63-.591v-17.8a.656.656,0,0,1,.669-.63h3.228a.642.642,0,0,1,.63.591v2.323h.079a4.588,4.588,0,0,1,4.567-3.307c2.165,0,3.543,1.063,4.488,3.307a4.934,4.934,0,0,1,4.8-3.307,4.88,4.88,0,0,1,4.016,1.968c1.1,1.5.866,3.661.866,5.591v11.26a.656.656,0,0,1-.669.63h-3.425a.676.676,0,0,1-.63-.63v-9.449a23.613,23.613,0,0,0-.079-3.346,1.826,1.826,0,0,0-2.047-1.535,2.318,2.318,0,0,0-2.087,1.457,10.908,10.908,0,0,0-.315,3.425v9.449a.656.656,0,0,1-.669.63h-3.465a.676.676,0,0,1-.63-.63v-9.449c0-1.968.315-4.921-2.126-4.921-2.48,0-2.4,2.835-2.4,4.921v9.449A.691.691,0,0,1,186.728,282.667ZM250.9,263.258c5.157,0,7.953,4.409,7.953,10.039,0,5.433-3.071,9.764-7.953,9.764-5.039,0-7.8-4.409-7.8-9.921C243.066,267.588,245.861,263.258,250.9,263.258Zm0,3.661c-2.559,0-2.717,3.5-2.717,5.669s-.039,6.811,2.677,6.811c2.677,0,2.835-3.74,2.835-6.024a17.228,17.228,0,0,0-.512-4.724A2.177,2.177,0,0,0,250.9,266.919Zm14.606,15.748h-3.465a.676.676,0,0,1-.63-.63V264.2a.68.68,0,0,1,.669-.591h3.228a.673.673,0,0,1,.63.512v2.716h.079c.984-2.441,2.323-3.583,4.724-3.583a4.585,4.585,0,0,1,4.055,2.087c.906,1.417.906,3.819.906,5.551v11.22a.648.648,0,0,1-.669.551H271.57a.716.716,0,0,1-.63-.551v-9.685c0-1.969.236-4.8-2.165-4.8a2.279,2.279,0,0,0-2.008,1.417,8.174,8.174,0,0,0-.551,3.386v9.606a.721.721,0,0,1-.709.63Zm-46.259-8.5a7.039,7.039,0,0,1-.63,3.7,2.786,2.786,0,0,1-2.4,1.575c-1.339,0-2.126-1.024-2.126-2.52,0-2.953,2.638-3.5,5.157-3.5Zm3.5,8.464a.712.712,0,0,1-.827.079,8.694,8.694,0,0,1-2.008-2.323,6.9,6.9,0,0,1-5.709,2.52c-2.913,0-5.2-1.811-5.2-5.394a5.893,5.893,0,0,1,3.7-5.669c1.89-.827,4.527-.984,6.535-1.22v-.433a4.253,4.253,0,0,0-.433-2.52,2.331,2.331,0,0,0-1.929-.905,2.621,2.621,0,0,0-2.8,2.087c-.079.315-.276.63-.591.63l-3.346-.354a.606.606,0,0,1-.512-.709c.787-4.094,4.449-5.315,7.756-5.315a7.792,7.792,0,0,1,5.236,1.732c1.693,1.575,1.535,3.7,1.535,5.984v5.394a4.877,4.877,0,0,0,1.3,3.228c.236.315.276.709,0,.906C224.72,280.935,223.46,282.037,222.751,282.627Zm-48.976-8.464a7.039,7.039,0,0,1-.63,3.7,2.786,2.786,0,0,1-2.4,1.575c-1.339,0-2.126-1.024-2.126-2.52,0-2.953,2.638-3.5,5.157-3.5Zm3.465,8.464a.712.712,0,0,1-.827.079,8.694,8.694,0,0,1-2.008-2.323,6.9,6.9,0,0,1-5.709,2.52c-2.913,0-5.2-1.811-5.2-5.394a5.893,5.893,0,0,1,3.7-5.669c1.89-.827,4.527-.984,6.535-1.22v-.433a4.253,4.253,0,0,0-.433-2.52,2.331,2.331,0,0,0-1.929-.905,2.621,2.621,0,0,0-2.8,2.087c-.079.315-.276.63-.591.63l-3.346-.354a.606.606,0,0,1-.512-.709c.787-4.094,4.449-5.315,7.756-5.315a7.791,7.791,0,0,1,5.236,1.732c1.693,1.575,1.535,3.7,1.535,5.984v5.394a4.877,4.877,0,0,0,1.3,3.228c.236.315.276.709,0,.906C179.208,280.935,177.949,282.037,177.24,282.627Z" transform="translate(-163.5 -263.1)" fill="#c2cbd8" fill-rule="evenodd"/>
</svg>
