<svg id="avocode-inc" xmlns="http://www.w3.org/2000/svg" width="141" height="32.223" viewBox="0 0 141 32.223">
  <path id="Path_97" data-name="Path 97" d="M12.083,0C5.907,0,0,11.412,0,20.139a12.083,12.083,0,0,0,24.167,0C24.167,11.412,18.259,0,12.083,0Zm0,26.181a6.051,6.051,0,0,1-6.042-6.042c0-4.484,3.061-10.07,6.042-10.07s6.042,5.585,6.042,10.07A6.051,6.051,0,0,1,12.083,26.181Z" fill="#00bc87"/>
  <path id="Path_98" data-name="Path 98" d="M137.318,38.686h-2.5l-.215-1.45a5.064,5.064,0,0,1-4.162,1.745,5.542,5.542,0,0,1-3.92-1.316,4.4,4.4,0,0,1-1.423-3.437,4.412,4.412,0,0,1,1.477-3.464,5.6,5.6,0,0,1,3.947-1.369,4.951,4.951,0,0,1,3.679,1.343V29.449a3.951,3.951,0,0,0-.94-2.846,3.487,3.487,0,0,0-2.632-.967,8.273,8.273,0,0,0-2.014.242,5.456,5.456,0,0,0-1.369.483l-.456.242-.806-2.444c.134-.107.349-.215.591-.376a10.26,10.26,0,0,1,1.719-.564,10.88,10.88,0,0,1,2.846-.349,6.111,6.111,0,0,1,4.538,1.638,6.337,6.337,0,0,1,1.638,4.7ZM133.5,35.947a2.427,2.427,0,0,0,0-3.706,3.422,3.422,0,0,0-2.282-.725,3.249,3.249,0,0,0-2.2.725,2.427,2.427,0,0,0,0,3.706,3.249,3.249,0,0,0,2.2.725A3.471,3.471,0,0,0,133.5,35.947Zm5.988-12.782h3.33l3.41,11.063,3.41-11.063h3.142l-5.236,15.494h-2.873Zm15.333,5.854a5.925,5.925,0,0,1,1.745-4.484,6.914,6.914,0,0,1,8.969-.027,5.908,5.908,0,0,1,1.692,4.431v3.867a5.986,5.986,0,0,1-1.745,4.511,6.276,6.276,0,0,1-4.511,1.665,6.181,6.181,0,0,1-4.457-1.611,5.833,5.833,0,0,1-1.665-4.457V29.02Zm3.088,3.786a3.478,3.478,0,0,0,.859,2.5,2.9,2.9,0,0,0,2.256.913,2.839,2.839,0,0,0,2.229-.913,3.568,3.568,0,0,0,.859-2.5V29.02a3.568,3.568,0,0,0-.859-2.5,3.21,3.21,0,0,0-4.484,0,3.568,3.568,0,0,0-.859,2.5Zm22.26-.081h2.981v.322a5.723,5.723,0,0,1-1.665,4.3,6.684,6.684,0,0,1-8.673.027,5.709,5.709,0,0,1-1.638-4.35V28.885a5.785,5.785,0,0,1,1.692-4.377,6.068,6.068,0,0,1,4.35-1.638,5.971,5.971,0,0,1,4.3,1.584,5.626,5.626,0,0,1,1.638,4.3v.269h-2.981v-.188a3.339,3.339,0,0,0-.806-2.336,3.014,3.014,0,0,0-4.269,0,3.387,3.387,0,0,0-.806,2.39v4.082a3.387,3.387,0,0,0,.806,2.39,3.047,3.047,0,0,0,4.269.027,3.225,3.225,0,0,0,.806-2.309Zm6.982-3.706a5.925,5.925,0,0,1,1.745-4.484,6.914,6.914,0,0,1,8.969-.027,5.908,5.908,0,0,1,1.692,4.431v3.867a5.986,5.986,0,0,1-1.745,4.511,6.276,6.276,0,0,1-4.511,1.665,6.181,6.181,0,0,1-4.457-1.611,5.833,5.833,0,0,1-1.665-4.457V29.02Zm3.088,3.786a3.478,3.478,0,0,0,.859,2.5,2.9,2.9,0,0,0,2.256.913,2.839,2.839,0,0,0,2.229-.913,3.568,3.568,0,0,0,.859-2.5V29.02a3.568,3.568,0,0,0-.859-2.5,3.21,3.21,0,0,0-4.484,0,3.568,3.568,0,0,0-.859,2.5Zm25.7,5.881h-2.712l-.161-1.826a4.607,4.607,0,0,1-4.162,2.121,5.158,5.158,0,0,1-3.92-1.5,5.861,5.861,0,0,1-1.423-4.189V28.67a5.9,5.9,0,0,1,1.477-4.269,5.239,5.239,0,0,1,3.974-1.531,4.569,4.569,0,0,1,3.84,1.745V17.5h3.115V38.686Zm-3.115-9.667a3.568,3.568,0,0,0-.859-2.5,3.21,3.21,0,0,0-4.484,0,3.568,3.568,0,0,0-.859,2.5v3.786a3.478,3.478,0,0,0,.859,2.5,2.9,2.9,0,0,0,2.256.913,2.839,2.839,0,0,0,2.229-.913,3.568,3.568,0,0,0,.859-2.5Zm19.6,4.753q-.04.2-.081.564a7.862,7.862,0,0,1-1.369,2.819,5.422,5.422,0,0,1-1.8,1.262,6.6,6.6,0,0,1-2.819.564,6.181,6.181,0,0,1-4.457-1.611,5.833,5.833,0,0,1-1.665-4.457V29.02a5.925,5.925,0,0,1,1.745-4.484,6.143,6.143,0,0,1,4.484-1.665,5.894,5.894,0,0,1,4.377,1.638,6,6,0,0,1,1.665,4.431v2.229h-9.183v1.638a3.478,3.478,0,0,0,.859,2.5,2.9,2.9,0,0,0,2.256.913,3.007,3.007,0,0,0,1.423-.322,2.2,2.2,0,0,0,.913-.779,7.208,7.208,0,0,0,.483-.886,1.9,1.9,0,0,0,.215-.779l.027-.3Zm-9.13-4.645h6.2v-.4a3.568,3.568,0,0,0-.859-2.5,3.21,3.21,0,0,0-4.484,0,3.568,3.568,0,0,0-.859,2.5Z" transform="translate(-91.508 -12.801)" fill="#6b6b6b"/>
</svg>
