<svg xmlns="http://www.w3.org/2000/svg" width="124.906" height="33.779" viewBox="0 0 124.906 33.779">
  <g id="github-2" transform="translate(0)">
    <path id="Path_75" data-name="Path 75" d="M23.935,189.52h-10.5a.491.491,0,0,0-.491.491v5.132a.492.492,0,0,0,.491.491h4.095v6.376a12.393,12.393,0,0,1-3.461.314c-3,0-7.188-1.1-7.188-10.308s4.362-10.426,8.458-10.426a16.61,16.61,0,0,1,6.044.925.494.494,0,0,0,.588-.481l1.171-4.958a.458.458,0,0,0-.188-.383c-.395-.281-2.8-1.629-8.885-1.629-7.007,0-14.195,2.981-14.195,17.312s8.229,16.467,15.164,16.467a17.072,17.072,0,0,0,9.225-2.454.422.422,0,0,0,.159-.372V190.01a.49.49,0,0,0-.49-.49m54.093-12.741a.489.489,0,0,0-.487-.493h-5.91a.491.491,0,0,0-.489.493l0,11.421H61.931V176.779a.49.49,0,0,0-.488-.493h-5.91a.491.491,0,0,0-.488.493V207.7a.492.492,0,0,0,.488.494h5.91a.491.491,0,0,0,.488-.494V194.477h9.212L71.127,207.7a.493.493,0,0,0,.49.494h5.924a.491.491,0,0,0,.488-.494V176.779m-42.941,4.058a3.811,3.811,0,1,0-3.811,3.85,3.828,3.828,0,0,0,3.811-3.85m-.423,20.344V186.906a.492.492,0,0,0-.489-.493H28.285a.564.564,0,0,0-.512.55v20.452c0,.6.375.78.859.78H33.94c.582,0,.725-.286.725-.789v-6.224m65.824-14.722H94.624a.492.492,0,0,0-.488.494v15.164a6.626,6.626,0,0,1-3.6,1.09c-2.115,0-2.676-.959-2.676-3.03V186.954a.492.492,0,0,0-.488-.494H81.416a.493.493,0,0,0-.489.494v14.225c0,6.15,3.428,7.655,8.143,7.655a13.744,13.744,0,0,0,6.987-2.137,12.411,12.411,0,0,0,.216,1.26.517.517,0,0,0,.431.268l3.787-.017a.493.493,0,0,0,.489-.494l0-20.76a.492.492,0,0,0-.489-.495m13.716,16.73a7.03,7.03,0,0,1-3.414-.985v-9.793a7.816,7.816,0,0,1,3.031-.984c2.112-.189,4.147.449,4.147,5.487C117.969,202.227,117.051,203.275,114.2,203.189Zm2.313-17.424a11.027,11.027,0,0,0-5.6,1.486V176.779a.49.49,0,0,0-.488-.493h-5.927a.491.491,0,0,0-.488.493V207.7a.492.492,0,0,0,.489.494h4.112a.49.49,0,0,0,.429-.262,9.625,9.625,0,0,0,.25-1.426,10.6,10.6,0,0,0,7.011,2.3c5.386,0,8.475-2.732,8.475-12.264s-4.933-10.778-8.266-10.778m-64.867.645H47.218l-.007-5.857c0-.222-.114-.332-.37-.332H40.8c-.235,0-.361.1-.361.329V186.6s-3.027.731-3.232.79a.491.491,0,0,0-.354.471v3.8a.49.49,0,0,0,.489.494h3.1v9.149c0,6.8,4.767,7.464,7.984,7.464a13.46,13.46,0,0,0,3.518-.579.457.457,0,0,0,.278-.443l0-4.184a.5.5,0,0,0-.49-.493c-.258,0-.919.105-1.6.105-2.177,0-2.915-1.013-2.915-2.323v-8.7h4.433a.491.491,0,0,0,.489-.494V186.9a.49.49,0,0,0-.489-.492" transform="translate(0.122 -175.062)" fill="#c2cbd8"/>
  </g>
</svg>
