<svg xmlns="http://www.w3.org/2000/svg" width="139.149" height="37.631" viewBox="0 0 139.149 37.631">
  <g id="github-2" transform="translate(0.122 -175.062)">
    <path id="Path_113" data-name="Path 113" d="M26.679,191.168H14.986a.547.547,0,0,0-.546.546v5.717a.548.548,0,0,0,.546.547h4.561v7.1a13.805,13.805,0,0,1-3.856.349c-3.341,0-8.008-1.221-8.008-11.483s4.86-11.615,9.422-11.615a18.5,18.5,0,0,1,6.733,1.03.55.55,0,0,0,.655-.536l1.3-5.523a.51.51,0,0,0-.209-.427c-.44-.314-3.122-1.814-9.9-1.814-7.806,0-15.813,3.321-15.813,19.286s9.168,18.345,16.893,18.345a19.018,19.018,0,0,0,10.277-2.733.47.47,0,0,0,.177-.415v-17.83a.546.546,0,0,0-.546-.546M86.94,176.975a.545.545,0,0,0-.543-.549H79.813a.547.547,0,0,0-.545.549l0,12.724H69.007V176.975a.545.545,0,0,0-.543-.549H61.88a.547.547,0,0,0-.544.549v34.452a.548.548,0,0,0,.544.551h6.584a.547.547,0,0,0,.543-.551V196.69H79.269l-.018,14.736a.549.549,0,0,0,.546.551h6.6a.547.547,0,0,0,.543-.551V176.975M39.1,181.5a4.245,4.245,0,1,0-4.246,4.289A4.264,4.264,0,0,0,39.1,181.5m-.471,22.663v-15.9a.548.548,0,0,0-.545-.549H31.524a.628.628,0,0,0-.571.613V211.1c0,.67.417.869.957.869h5.913c.649,0,.808-.319.808-.879v-6.934m73.329-16.4h-6.533a.548.548,0,0,0-.544.551V205.2a7.381,7.381,0,0,1-4.016,1.215c-2.356,0-2.981-1.069-2.981-3.376V188.31a.548.548,0,0,0-.543-.551H90.713a.549.549,0,0,0-.544.551v15.847c0,6.851,3.819,8.527,9.072,8.527a15.311,15.311,0,0,0,7.784-2.381,13.827,13.827,0,0,0,.24,1.4.576.576,0,0,0,.481.3l4.219-.019a.549.549,0,0,0,.544-.55l0-23.127a.548.548,0,0,0-.545-.551m15.28,18.637a7.832,7.832,0,0,1-3.8-1.1v-10.91a8.707,8.707,0,0,1,3.377-1.1c2.353-.211,4.62.5,4.62,6.112C131.434,205.324,130.411,206.492,127.241,206.4Zm2.577-19.411a12.285,12.285,0,0,0-6.235,1.656V176.975a.546.546,0,0,0-.543-.55h-6.6a.547.547,0,0,0-.544.55v34.452a.548.548,0,0,0,.545.551h4.581a.546.546,0,0,0,.478-.292,10.723,10.723,0,0,0,.278-1.588,11.813,11.813,0,0,0,7.811,2.558c6,0,9.441-3.043,9.441-13.663s-5.5-12.007-9.209-12.007m-72.264.719H52.616l-.008-6.525c0-.247-.127-.37-.413-.37h-6.73c-.262,0-.4.115-.4.367v6.743s-3.373.814-3.6.88a.546.546,0,0,0-.394.525v4.237a.546.546,0,0,0,.544.55h3.451V204.3c0,7.571,5.31,8.315,8.894,8.315a14.994,14.994,0,0,0,3.919-.646.509.509,0,0,0,.309-.494l.006-4.661a.555.555,0,0,0-.546-.55c-.288,0-1.024.117-1.782.117-2.426,0-3.248-1.128-3.248-2.588V194.11h4.939a.547.547,0,0,0,.545-.55v-5.307a.546.546,0,0,0-.545-.548" transform="translate(0 0)" fill="#121110"/>
  </g>
</svg>
