<svg xmlns="http://www.w3.org/2000/svg" width="103.484" height="33.779" viewBox="0 0 103.484 33.779">
  <g id="google-2015_1_" data-name="google-2015 (1)" transform="translate(0)">
    <path id="Path_76" data-name="Path 76" d="M12.742,0h.92a12.557,12.557,0,0,1,8.595,3.629c-.833.851-1.684,1.667-2.5,2.518a9.391,9.391,0,0,0-15.766,5.66,9.666,9.666,0,0,0,2.1,7.466,9.293,9.293,0,0,0,6.772,3.334A9.014,9.014,0,0,0,19.6,20.3a7.354,7.354,0,0,0,2.24-4.792c-2.882,0-5.765.017-8.647,0V11.928H25.33c.625,3.837-.278,8.161-3.195,10.9a11.867,11.867,0,0,1-7.379,3.316,13.553,13.553,0,0,1-7.761-1.528A13.363,13.363,0,0,1,.8,17.554,12.8,12.8,0,0,1,.709,8.89,13.219,13.219,0,0,1,5.484,2.552,13.631,13.631,0,0,1,12.742,0Z" transform="translate(0.003)" fill="#c2cbd8"/>
    <path id="Path_77" data-name="Path 77" d="M474.4,5.2h3.716V29.994c-1.233,0-2.483.017-3.716-.017C474.417,21.73,474.4,13.465,474.4,5.2Z" transform="translate(-392.029 -4.297)" fill="#c2cbd8"/>
    <path id="Path_78" data-name="Path 78" d="M161.093,53.967a8.725,8.725,0,0,1,6.667,1.424,8.155,8.155,0,0,1,3.282,5.209,8.4,8.4,0,0,1-8.82,10.071,8.45,8.45,0,0,1-6.32-3.386,8.68,8.68,0,0,1-1.146-7.883,8.24,8.24,0,0,1,6.338-5.435m.521,3.3a4.668,4.668,0,0,0-2.431,1.545,5.507,5.507,0,0,0,.278,7.171,4.623,4.623,0,0,0,4.132,1.285,4.676,4.676,0,0,0,3.23-2.379,5.492,5.492,0,0,0-.938-6.529A4.685,4.685,0,0,0,161.613,57.266Z" transform="translate(-127.495 -44.469)" fill="#c2cbd8"/>
    <path id="Path_79" data-name="Path 79" d="M267.119,53.961a8.442,8.442,0,0,1,8.265,13.6,8.588,8.588,0,0,1-13.456-.278,8.763,8.763,0,0,1-1.094-8.056,8.247,8.247,0,0,1,6.285-5.261m.521,3.3a4.748,4.748,0,0,0-2.431,1.528,5.515,5.515,0,0,0,.191,7.1,4.646,4.646,0,0,0,4.237,1.372,4.763,4.763,0,0,0,3.23-2.379,5.521,5.521,0,0,0-.972-6.546,4.654,4.654,0,0,0-4.254-1.077Z" transform="translate(-215.116 -44.463)" fill="#c2cbd8"/>
    <path id="Path_80" data-name="Path 80" d="M370.031,54.965a7.1,7.1,0,0,1,6.806-.521,6.486,6.486,0,0,1,1.771,1.3c.017-.469,0-.955.017-1.441,1.163.017,2.327,0,3.507.017V69.637a9.152,9.152,0,0,1-2.275,6.442,8.277,8.277,0,0,1-7.136,2.049,8.074,8.074,0,0,1-6.077-4.844c1.042-.5,2.136-.9,3.212-1.372a4.775,4.775,0,0,0,3.386,2.917,4.5,4.5,0,0,0,4.341-1.389c1.077-1.32,1.077-3.125,1.024-4.74a6.164,6.164,0,0,1-2.83,1.736,7.631,7.631,0,0,1-6.928-1.788,8.547,8.547,0,0,1,1.181-13.682m3.594,2.222a4.568,4.568,0,0,0-2.726,1.58,5.539,5.539,0,0,0,.017,6.963,4.543,4.543,0,0,0,3.907,1.6,4.412,4.412,0,0,0,3.316-2.205,5.86,5.86,0,0,0-.59-6.563A4.273,4.273,0,0,0,373.625,57.188Z" transform="translate(-302.419 -44.461)" fill="#c2cbd8"/>
    <path id="Path_81" data-name="Path 81" d="M508.971,55.8a7.836,7.836,0,0,1,7.97-1.58c2.535.955,4.15,3.368,4.966,5.851-3.768,1.563-7.518,3.108-11.286,4.671a4.477,4.477,0,0,0,2.4,2.257,4.864,4.864,0,0,0,4.584-.66,7.393,7.393,0,0,0,1.285-1.372c.955.642,1.91,1.268,2.865,1.91a8.5,8.5,0,0,1-13.422.851,8.9,8.9,0,0,1,.642-11.928m1.858,3.212a4.958,4.958,0,0,0-.816,2.917q3.776-1.563,7.553-3.143a3.123,3.123,0,0,0-2.448-1.719A4.437,4.437,0,0,0,510.828,59.011Z" transform="translate(-418.422 -44.409)" fill="#c2cbd8"/>
  </g>
</svg>
