<svg xmlns="http://www.w3.org/2000/svg" width="139" height="40.305" viewBox="0 0 139 40.305">
  <g id="hubspot" transform="translate(-0.06 -0.002)">
    <path id="Path_116" data-name="Path 116" d="M.06,27.679H4.907V38.447H15.129V27.679h4.853V54.112H15.129V43.117H4.907V54.112H.06ZM35.337,45.5a4.015,4.015,0,0,1-8.03,0V34.122h-4.6V45.5a8.61,8.61,0,0,0,17.221,0V34.122H35.337V45.5M52.763,34.255a7.064,7.064,0,0,0-5.409,2.17V27.679H42.743v16.21c0,6.067,4.387,10.223,9.315,10.223a10.094,10.094,0,0,0,10.28-9.928,9.755,9.755,0,0,0-9.575-9.928Zm.115,15.59a5.665,5.665,0,0,1,0-11.325c2.648,0,5.038,2.61,5.038,5.663S55.525,49.846,52.878,49.846ZM70.083,35.417c0-2.318,1.545-3.053,3.235-3.053a6.907,6.907,0,0,1,4.338,2.28l3.014-3.53a9.523,9.523,0,0,0-7.058-3.42c-5,0-8.6,2.905-8.6,7.723,0,8.935,10.995,6.1,10.995,11.1a3.164,3.164,0,0,1-3.234,2.9c-2.722,0-3.6-1.324-4.855-2.722l-3.347,3.456A9.888,9.888,0,0,0,72.511,54.1c4.743,0,8.567-2.942,8.567-7.539,0-9.928-10.995-6.839-10.995-11.14M93.218,34C88.29,34,83.9,38.149,83.9,44.218V60.47h4.611V51.681a7.067,7.067,0,0,0,5.409,2.17,9.755,9.755,0,0,0,9.576-9.928A10.094,10.094,0,0,0,93.218,34Zm.819,15.591a5.665,5.665,0,0,1,0-11.326c2.647,0,5.038,2.61,5.038,5.663S96.684,49.587,94.037,49.587Zm43.4.258c-2.72,0-3.492-1.176-3.492-2.979V38.888h4.228V34.844h-4.228V29.512l-4.668,2.1V47.86c0,4.156,2.867,6.252,6.8,6.252a9.442,9.442,0,0,0,1.84-.147l1.14-4.191c-.515.036-1.1.072-1.619.072" transform="translate(0 -20.163)" fill="#45535e"/>
    <path id="Path_117" data-name="Path 117" d="M368.4,18.96a10.142,10.142,0,0,0-3.682-3.658,9.887,9.887,0,0,0-3.724-1.29V9.18a3.568,3.568,0,0,0,2.2-3.341,3.669,3.669,0,1,0-7.338,0A3.525,3.525,0,0,0,358,9.18v4.835a10.632,10.632,0,0,0-3.241,1.016c-2.1-1.6-8.988-6.829-13.018-9.886a4,4,0,0,0,.169-1.074,4.067,4.067,0,1,0-4.065,4.068,4.029,4.029,0,0,0,2.088-.593l.85.645,11.684,8.419a9.8,9.8,0,0,0-1.653,1.936,9.035,9.035,0,0,0-1.5,4.87v.37a10.207,10.207,0,0,0,.639,3.519,9.239,9.239,0,0,0,1.514,2.629l-3.878,3.887a3.133,3.133,0,1,0,1.921,2l4.008-4.009a10.3,10.3,0,0,0,1.781.975,10.414,10.414,0,0,0,4.168.876h.279a9.981,9.981,0,0,0,8.484-4.712A9.208,9.208,0,0,0,369.678,24V23.9A9.725,9.725,0,0,0,368.4,18.96Zm-4.9,8.409a5.1,5.1,0,0,1-3.752,1.954h-.233a5.072,5.072,0,0,1-2.37-.629,5.478,5.478,0,0,1-2.076-1.892,4.411,4.411,0,0,1-.864-2.574V23.95a5.275,5.275,0,0,1,.609-2.564,5.553,5.553,0,0,1,1.933-2.115,4.731,4.731,0,0,1,2.678-.808h.091a5.427,5.427,0,0,1,2.518.58,5.335,5.335,0,0,1,1.978,1.8,5.724,5.724,0,0,1,.887,2.528c.015.19.023.384.023.57A5,5,0,0,1,363.5,27.37Z" transform="translate(-243.115)" fill="#f8761f"/>
  </g>
</svg>
