<svg xmlns="http://www.w3.org/2000/svg" width="129" height="48.297" viewBox="0 0 129 48.297">
  <g id="paddle-logo-vector_2" data-name="paddle-logo-vector 2" transform="translate(-17.9 -204.7)">
    <path id="Path_118" data-name="Path 118" d="M39.7,217.194c-2.408-1.957-5.763-2.86-9.72-2.58-1.806.129-6.021,1.075-8.085,1.527a3.522,3.522,0,0,0-3.075,3.161l-.925,4.774s4.215-1.441,6.817-2.064l-2,2.666a4.522,4.522,0,0,0-.8,2.387V253l3.548-1.4a4.449,4.449,0,0,0,2.946-4.322v-6.085a11.527,11.527,0,0,0,4.924.645,10.987,10.987,0,0,0,8.171-4.473A15.506,15.506,0,0,0,44.113,227c-.323-4.365-1.806-7.677-4.408-9.806Zm74.768,23.933h-2.709a3.266,3.266,0,0,1-2.946-2A8.556,8.556,0,0,1,102.3,241.6a9.074,9.074,0,0,1-7.5-3.548c-1.742-2.279-2.666-5.569-2.666-9.548,0-4.15.9-7.612,2.645-10.021a9.393,9.393,0,0,1,13.59-1.677V204.7h2.172a3.96,3.96,0,0,1,3.957,3.957l-.022,32.47Zm-24.149,0H87.615a3.266,3.266,0,0,1-2.946-2,8.556,8.556,0,0,1-6.516,2.473,9.074,9.074,0,0,1-7.5-3.548c-1.742-2.279-2.666-5.569-2.666-9.548,0-4.15.9-7.612,2.645-10.021a9.393,9.393,0,0,1,13.59-1.677V204.7h2.172a3.96,3.96,0,0,1,3.957,3.957l-.022,32.47ZM46.586,222.7s6.645-2.774,9.892-2.774c.86,0,3.4,0,3.656,3.957a41.407,41.407,0,0,0-6.064,1.1c-5.5,1.4-8.666,4.666-8.666,8.945a7.626,7.626,0,0,0,7.827,7.569c3.312,0,5.655-.71,7.376-2.258a3.925,3.925,0,0,0,3.2,1.892h2.516V222.741c0-4.688-4-8.085-9.634-8.085h-.581a20.534,20.534,0,0,0-4.731.731s-3.828.968-4.193,3.462c-.409,2.473-.6,3.849-.6,3.849Zm90.078,13.44c-2.086,0-4.473-1.054-5.2-3.333a29.675,29.675,0,0,0,8.623-1.935c4.279-1.828,6.451-4.774,6.451-8.752,0-4.86-3.441-7.655-9.419-7.655a11.84,11.84,0,0,0-9.053,3.957,14.4,14.4,0,0,0-3.355,9.612c0,8.257,4.537,13.375,11.848,13.375a30.3,30.3,0,0,0,6.086-.9,3.892,3.892,0,0,0,3.118-3.14l1.14-5.01A15.886,15.886,0,0,1,136.664,236.138ZM122.988,223.86V208.7a3.892,3.892,0,0,0-3.978-4h-2.15v32.427a3.892,3.892,0,0,0,3.978,4h2.15V223.86Z" fill="#445a7d"/>
    <path id="Path_119" data-name="Path 119" d="M147.03,282.364c0,5.763-1.656,8.558-5.075,8.558-4.623,0-5.161-4.623-5.161-8.085,0-2.43.473-8.085,4.881-8.085,4.666,0,5.354,4.774,5.354,7.612Zm-24.385,0c0,5.763-1.656,8.558-5.075,8.558-4.623,0-5.161-4.623-5.161-8.085,0-2.43.473-8.085,4.881-8.085,4.645,0,5.354,4.774,5.354,7.612Zm-24.127,4.881c0,1.806-2.645,3.591-5.354,3.591-1.591,0-3.29-.989-3.29-2.473s.516-2.494,3.161-3.355a30.476,30.476,0,0,1,5.5-1.269l-.022,3.505Zm-27.439,3.1a5.608,5.608,0,0,1-4.279-1.2V275.784c1.226-.258,2.129-.409,2.516-.452,3.935-.28,6.365,2.064,6.666,6.387.215,2.86-.559,8.322-4.9,8.623Zm107.733-13.5c0,3.548-5.01,4.86-9.526,5.333.237-4.731,2.709-7.87,6.3-7.87C176.812,274.321,178.812,275.01,178.812,276.837Z" transform="translate(-38.385 -54.634)" fill="#fff"/>
  </g>
</svg>
