<svg id="slack-2_1_" data-name="slack-2 (1)" xmlns="http://www.w3.org/2000/svg" width="139" height="35.173" viewBox="0 0 139 35.173">
  <path id="Path_99" data-name="Path 99" d="M799.8,36.761l1.735-4.031a11.567,11.567,0,0,0,6.833,2.129c1.818,0,2.969-.7,2.969-1.763-.028-2.969-10.892-.645-10.975-8.09-.028-3.781,3.33-6.694,8.09-6.694a12.459,12.459,0,0,1,7.673,2.3L814.5,24.723a12.222,12.222,0,0,0-6.327-2.018c-1.484,0-2.463.7-2.463,1.6.028,2.913,10.975,1.318,11.087,8.429,0,3.864-3.275,6.583-7.979,6.583a15.379,15.379,0,0,1-9.018-2.552m66.614-5.488a5.01,5.01,0,1,1,0-4.926l4.787-2.658a10.5,10.5,0,1,0,0,10.253ZM819.2,9.6H825.2V38.918H819.2Zm54.349,0V38.918h5.994v-8.8l7.111,8.8h7.673l-9.046-10.447,8.373-9.747h-7.339l-6.778,8.09V9.6Z" transform="translate(-755.331 -9.066)" fill-rule="evenodd"/>
  <path id="Path_100" data-name="Path 100" d="M1315.773,179.222a5.518,5.518,0,0,1-4.676,2.491,5.01,5.01,0,1,1,0-10.019,5.521,5.521,0,0,1,4.676,2.574Zm0-12.6V169c-.979-1.651-3.414-2.8-5.966-2.8-5.265,0-9.407,4.648-9.407,10.475s4.142,10.531,9.407,10.531c2.546,0,4.982-1.145,5.966-2.8v2.38h5.994V166.623Z" transform="translate(-1228.098 -156.959)"/>
  <g id="Group_159" data-name="Group 159" transform="translate(0)">
    <path id="Path_101" data-name="Path 101" d="M7.895,337.1a3.7,3.7,0,1,1-3.7-3.7h3.7Zm1.846,0a3.7,3.7,0,1,1,7.395,0v9.241a3.7,3.7,0,1,1-7.395,0Z" transform="translate(-0.472 -314.863)" fill="#e01e5a" fill-rule="evenodd"/>
    <path id="Path_102" data-name="Path 102" d="M12.966,7.395a3.7,3.7,0,1,1,3.7-3.7v3.7Zm0,1.874a3.7,3.7,0,1,1,0,7.395H3.7a3.7,3.7,0,1,1,0-7.395Z" transform="translate(0)" fill="#36c5f0" fill-rule="evenodd"/>
    <path id="Path_103" data-name="Path 103" d="M342.641,12.966a3.7,3.7,0,1,1,3.7,3.7h-3.7Zm-1.846,0a3.7,3.7,0,0,1-7.395,0V3.7a3.7,3.7,0,0,1,7.395,0Z" transform="translate(-314.863 0)" fill="#2eb67d" fill-rule="evenodd"/>
    <path id="Path_104" data-name="Path 104" d="M337.1,342.641a3.7,3.7,0,1,1-3.7,3.7v-3.7Zm0-1.846a3.7,3.7,0,1,1,0-7.395h9.268a3.7,3.7,0,0,1,0,7.395Z" transform="translate(-314.863 -314.863)" fill="#ecb22e" fill-rule="evenodd"/>
  </g>
</svg>
