<svg xmlns="http://www.w3.org/2000/svg" width="120" height="49.933" viewBox="0 0 120 49.933">
  <path id="stripe-4" d="M8.433,19.567c0-1.3,1.067-1.8,2.834-1.8A18.593,18.593,0,0,1,19.533,19.9V12.067a21.982,21.982,0,0,0-8.266-1.533C4.5,10.533,0,14.067,0,19.967c0,9.2,12.667,7.733,12.667,11.7,0,1.533-1.333,2.033-3.2,2.033a20.75,20.75,0,0,1-9.1-2.667v7.933a23.107,23.107,0,0,0,9.1,1.9c6.933,0,11.7-3.433,11.7-9.4-.033-9.933-12.733-8.167-12.733-11.9Zm22.533-15.7L22.833,5.6,22.8,32.3a8.375,8.375,0,0,0,8.633,8.567,12.874,12.874,0,0,0,5.833-1.1V33c-1.066.433-6.333,1.967-6.333-2.967V18.2h6.333V11.1H30.933Zm16.667,9.7L47.1,11.1H39.9V40.267h8.333V20.5c1.966-2.567,5.3-2.1,6.333-1.733V11.1c-1.067-.4-4.967-1.133-6.933,2.467ZM56.6,11.1h8.367V40.267H56.6Zm0-2.533,8.367-1.8V0L56.6,1.767v6.8Zm25.767,1.967a9.415,9.415,0,0,0-6.533,2.6L75.4,11.067H68.067V49.933L76.4,48.167l.034-9.433a9.386,9.386,0,0,0,5.9,2.1c5.967,0,11.4-4.8,11.4-15.367C93.7,15.8,88.2,10.533,82.367,10.533Zm-2,22.967a4.982,4.982,0,0,1-3.933-1.567L76.4,19.567a4.962,4.962,0,0,1,3.967-1.633c3.033,0,5.133,3.4,5.133,7.766,0,4.467-2.067,7.8-5.133,7.8ZM120,25.8c0-8.533-4.133-15.267-12.033-15.267-7.934,0-12.734,6.734-12.734,15.2,0,10.033,5.667,15.1,13.8,15.1a18.587,18.587,0,0,0,9.233-2.167V32a17.7,17.7,0,0,1-8.167,1.834c-3.233,0-6.1-1.133-6.467-5.067h16.3c0-.434.067-2.167.067-2.967Zm-16.467-3.167c0-3.767,2.3-5.333,4.4-5.333,2.033,0,4.2,1.567,4.2,5.333Z" fill="#6772e5"/>
</svg>
