<svg xmlns="http://www.w3.org/2000/svg" width="259.252" height="33.779" viewBox="0 0 259.252 33.779">
  <g id="TESLA" transform="translate(0)">
    <path id="Path_82" data-name="Path 82" d="M225.933,13.4V33.779h6.514V20.193h23.822V33.779h6.514V13.4h-36.85M231.7,6.793h25.125c3.536-.651,6.049-3.815,6.793-6.793H224.909A9.47,9.47,0,0,0,231.7,6.793m-25.59,26.986a9.63,9.63,0,0,0,5.769-6.607H182.569V.093h-6.607V33.779h30.15m-79-27.079h23.264c3.536-1.024,6.421-3.722,7.165-6.607h-36.85V20.007h30.15v6.979H127.2a13.323,13.323,0,0,0-8.468,6.793h38.618V13.4H127.2l-.093-6.7m-57.322.093H94.911A9.033,9.033,0,0,0,101.7,0H62.9a9.442,9.442,0,0,0,6.886,6.793m0,13.307H94.911a9.033,9.033,0,0,0,6.793-6.793H62.9A9.442,9.442,0,0,0,69.786,20.1m0,13.679H94.911a9.033,9.033,0,0,0,6.793-6.793H62.9a9.3,9.3,0,0,0,6.886,6.793" transform="translate(-4.368)" fill="#c2cbd8"/>
    <g id="Group_107" data-name="Group 107" transform="translate(0)">
      <path id="Path_83" data-name="Path 83" d="M0,.093a9.355,9.355,0,0,0,6.793,6.7H17.4l.558.186V33.686h6.607V6.979l.558-.186H35.733a9.5,9.5,0,0,0,6.793-6.7V0L0,.093" fill="#c2cbd8"/>
    </g>
  </g>
</svg>
