<svg xmlns="http://www.w3.org/2000/svg" width="26" height="21" viewBox="0 0 26 21">
  <path id="Path_67" data-name="Path 67" d="M26,50.486a11.165,11.165,0,0,1-3.071.837,5.275,5.275,0,0,0,2.345-2.929,10.691,10.691,0,0,1-3.38,1.283,5.336,5.336,0,0,0-9.22,3.623,5.425,5.425,0,0,0,.124,1.208A15.117,15.117,0,0,1,1.81,48.966a5.279,5.279,0,0,0,1.638,7.082A5.288,5.288,0,0,1,1.04,55.4v.058A5.331,5.331,0,0,0,5.31,60.66a5.35,5.35,0,0,1-1.4.174,4.74,4.74,0,0,1-1.009-.09,5.377,5.377,0,0,0,4.981,3.691,10.751,10.751,0,0,1-6.609,2.26A10.043,10.043,0,0,1,0,66.622,15.071,15.071,0,0,0,8.177,69,15.019,15.019,0,0,0,23.348,53.922c0-.234-.008-.46-.02-.685A10.6,10.6,0,0,0,26,50.486Z" transform="translate(0 -48)"/>
</svg>
