<svg xmlns="http://www.w3.org/2000/svg" width="20" height="30" viewBox="0 0 20 30">
  <g id="victory" transform="translate(-99.637 0)">
    <path id="Path_68" data-name="Path 68" d="M109.233,30c5.291,0,9.6-3.97,9.6-8.849V15a2.451,2.451,0,0,0-.366-1.285A72.128,72.128,0,0,0,119.494,6.5c.2-2.395.489-6.173-1.524-6.481-2.219-.339-3.273,4.1-3.835,6.3-.41,1.606-.8,3.438-1.064,4.946-.266-1.5-.653-3.337-1.064-4.946-.547-2.142-1.612-6.639-3.835-6.3-2.047.312-1.72,4.177-1.524,6.481.136,1.6.353,3.174.51,4.209a3.114,3.114,0,0,0-.8-.105,2.854,2.854,0,0,0-2.777,1.945,3.093,3.093,0,0,0-1.061-.186A2.769,2.769,0,0,0,99.637,15V21.15c0,4.879,4.3,8.849,9.6,8.849Zm7.677-8.849c0,3.91-3.444,7.091-7.677,7.091a7.557,7.557,0,0,1-7.535-5.733,1.792,1.792,0,0,0,.818.194c.6,0,1.437-.283,2-1.629a7.085,7.085,0,0,0,.308-.923,1.89,1.89,0,0,0,1.526.793c.6,0,1.437-.283,2-1.629a10.545,10.545,0,0,0,.626-2.551l.008-.057a10.4,10.4,0,0,0,2.418.607,6.313,6.313,0,0,0-2.178,4.715.963.963,0,0,0,1.919,0c0-3.424,3.313-4.449,3.436-4.547a.859.859,0,0,0,.511-.963.937.937,0,0,0-.883-.7c-2.976-.162-4.249-.58-4.652-.819,1.175-.7,4.988-.882,6.386-.882a.923.923,0,0,1,.96.879ZM116,6.715a18.852,18.852,0,0,1,1.576-4.521,18.378,18.378,0,0,1-.053,4.747c-.228,2.342-.529,4.077-.784,5.522a3.114,3.114,0,0,0-.794-.1c-.037,0-.48,0-1.137.025C115.153,10.475,115.506,8.668,116,6.715Zm-7.443-4.521a18.829,18.829,0,0,1,1.574,4.512c.527,2.061.875,3.885,1.248,5.977a12.316,12.316,0,0,0-1.871.412c-.1-.569-.593-3.022-.9-6.146a18.406,18.406,0,0,1-.054-4.756ZM106.354,12.36a.923.923,0,0,1,.96.879,27.906,27.906,0,0,1-.179,2.892,6.849,6.849,0,0,1-.78,2.954,6.826,6.826,0,0,1-.779-2.94,28.012,28.012,0,0,1-.181-2.906A.923.923,0,0,1,106.354,12.36Zm-3.838,1.758a.923.923,0,0,1,.96.879,27.907,27.907,0,0,1-.179,2.892,6.849,6.849,0,0,1-.78,2.954,6.826,6.826,0,0,1-.779-2.94A28.013,28.013,0,0,1,101.556,15,.923.923,0,0,1,102.516,14.118Z" transform="translate(0 0)" fill="#4f6177"/>
  </g>
</svg>
